# xmcd
#
# Track frame offsets:
#	150
#	15987
#	33189
#	56458
#	76266
#	88806
#	104367
#	121480
#
# Disc length: 1852 seconds
#
# Revision: 1
# Processed by: cddbd v1.5.2PL0 Copyright (c) Steve Scherf et al.
# Submitted via: audiograbber 1.83.01
#
DISCID=55073a08
DTITLE=Kevin Bennett and The Flood - Skin
DYEAR=2015
DGENRE=
TTITLE0=Born White
TTITLE1=Careful
TTITLE2=Easy Go, Easy Come
TTITLE3=Hole In My Roof
TTITLE4=Through The Days
TTITLE5=She Needs Love
TTITLE6=Ticket To LA
TTITLE7=Skin
EXTD=
EXTT0=
EXTT1=
EXTT2=
EXTT3=
EXTT4=
EXTT5=
EXTT6=
EXTT7=
PLAYORDER=
